PathFileType   4   (X/Y/Z)																																																																																																																							
DataRate	CameraRate	NumFrames	NumMarkers	Units	OrigDataRate	OrigDataStartFrame	OrigNumFrames																																																																																																																
120	120	4	37	mm	120	20	156																																																																																																																
Frame#	Time	Sternum	R.Acromium	L.Acromium	Top.Head	R.ASIS	L.ASIS	V.Sacral	R.Thigh.Upper	R.Thigh.Front	R.Thigh.Rear	R.Knee.Lat	R.Knee.Med	R.Shank.Upper	R.Shank.Front	R.Shank.Rear	R.Ankle.Lat	R.Ankle.Med	R.Heel	R.Midfoot.Sup	R.Midfoot.Lat	R.Toe.Lat	R.Toe.Med	R.Toe.Tip	L.Thigh.Upper	L.Thigh.Front	L.Thigh.Rear	L.Knee.Lat	L.Knee.Med	L.Shank.Upper	L.Shank.Front	L.Shank.Rear	L.Ankle.Lat	L.Ankle.Med	L.Heel	L.Midfoot.Sup	L.Midfoot.Lat	L.Toe.Lat	L.Toe.Med	L.Toe.Tip																																																																															
 	 	X1	Y1	Z1	X2	Y2	Z2	X3	Y3	Z3	X4	Y4	Z4	X5	Y5	Z5	X6	Y6	Z6	X7	Y7	Z7	X8	Y8	Z8	X9	Y9	Z9	X10	Y10	Z10	X11	Y11	Z11	X12	Y12	Z12	X13	Y13	Z13	X14	Y14	Z14	X15	Y15	Z15	X16	Y16	Z16	X17	Y17	Z17	X18	Y18	Z18	X19	Y19	Z19	X20	Y20	Z20	X21	Y21	Z21	X22	Y22	Z22	X23	Y23	Z23	X24	Y24	Z24	X25	Y25	Z25	X26	Y26	Z26	X27	Y27	Z27	X28	Y28	Z28	X29	Y29	Z29	X30	Y30	Z30	X31	Y31	Z31	X32	Y32	Z32	X33	Y33	Z33	X34	Y34	Z34	X35	Y35	Z35	X36	Y36	Z36	X37	Y37	Z37	X38	Y38	Z38	X39	Y39	Z39	
																																																																																																																							
	20	0.375	-2003.739358	-0.001002095	1370.721183	-2069.490011	-161.9453511	1446.335405	-2066.815221	165.1979949	1445.69603	-1936.265515	-10.08809499	1655.00197	-2023.40919	-117.7896216	1024.004208	-2017.280355	119.399185	1016.973298	-2199.780843	-5.611229398	1015.903973	-2020.911838	-173.4115572	689.7009535	-1950.940329	-67.95180237	628.3135118	-2019.50669	-162.9734513	555.4003506	-2053.951593	-142.5943975	456.9158661	-2054.085869	-8.355853302	438.3474848	-2114.245671	-154.6508593	445.4474042	-2069.342146	-93.81404015	364.5423345	-2155.647519	-165.0122006	357.9000595	-2340.433045	-136.9768135	97.96590375	-2323.884946	-37.22329306	106.0159322	-2416.438467	-79.10633289	103.4758785	-2273.919845	-41.71858376	49.58635605	-2287.885095	-155.3841374	33.03642427	-2212.922091	-165.0174344	-30.40205199	-2204.781796	-50.15543807	-18.9305299	-2146.187501	-83.79364801	-46.00948681	-2051.842148	178.8034865	698.5905169	-1963.269619	95.03600439	656.3776513	-2057.457354	161.7547942	577.8872553	-2080.476138	144.5366564	432.9101097	-2079.155776	15.87918741	433.7558991	-2085.419211	162.4477689	407.8231493	-2038.501198	100.5194763	349.9552257	-2106.726333	174.5177999	360.4872245	-2102.688661	136.4325857	9.342683381	-2097.043425	34.31683281	35.15656198	-2185.541183	76.11439987	-10.53152233	-2002.99743	48.15109198	-6.706920709	-2022.472234	152.6198727	-6.820692131	-1955.321467	163.716336	-31.04923326	-1937.269301	55.50675189	-30.96520682	-1885.161247	82.30973808	-29.78164235
	21	0.38333	-1998.122833	-0.001002095	1370.624598	-2063.701165	-161.9453511	1446.388318	-2061.027838	165.1979949	1445.742855	-1930.001947	-10.08809499	1654.751032	-2018.499335	-117.7896216	1024.232657	-2012.369334	119.399185	1017.202764	-2194.869642	-5.611229398	1016.103183	-2013.558377	-173.4115572	690.7600906	-1942.959452	-67.95180237	630.095258	-2010.772583	-162.9734513	556.4810315	-2044.203164	-142.5943975	457.6476298	-2044.146534	-8.355853302	439.0788493	-2104.001959	-154.6508593	444.9834084	-2057.303481	-93.81404015	365.100938	-2143.439062	-165.0122006	356.5336177	-2322.375707	-136.9768135	92.53904809	-2306.011443	-37.22329306	100.9564939	-2398.550019	-79.10633289	95.42585232	-2254.295625	-41.71858376	46.37171561	-2267.694986	-155.3841374	29.36037901	-2190.635884	-165.0174344	-31.51479635	-2182.886958	-50.15543807	-19.77536025	-2123.413054	-83.79364801	-44.86352563	-2048.230024	178.8034865	698.5218207	-1959.902474	95.03600439	655.7987271	-2054.541414	161.7547942	577.8529586	-2078.396115	144.5366564	433.011009	-2077.070896	15.87918741	433.8491678	-2083.515786	162.4477689	407.9506722	-2036.958484	100.5194763	349.7921456	-2105.116816	174.5177999	360.7481434	-2103.262529	136.4325857	9.585284989	-2097.4569	34.31683281	35.36356429	-2186.136206	76.11439987	-10.21194559	-2003.590061	48.15109198	-6.503287257	-2023.064932	152.6198727	-6.604689251	-1955.929568	163.716336	-30.87587624	-1937.877352	55.50675189	-30.80331564	-1885.768557	82.30973808	-29.6528478
	22	0.39167	-1992.511729	-0.001002095	1370.477718	-2057.911633	-161.9453511	1446.395512	-2055.239832	165.1979949	1445.743761	-1923.722576	-10.08809499	1654.443099	-2013.617402	-117.7896216	1024.424566	-2007.486123	119.399185	1017.395788	-2189.986228	-5.611229398	1016.263023	-2006.228243	-173.4115572	691.8106607	-1935.006346	-67.95180237	631.878436	-2002.055335	-162.9734513	557.5675483	-2034.463066	-142.5943975	458.3940436	-2034.214602	-8.355853302	439.8268392	-2093.712305	-154.6508593	444.5047623	-2045.172174	-93.81404015	365.7277826	-2131.085681	-165.0122006	355.1633872	-2303.84626	-136.9768135	87.08646077	-2287.681791	-37.22329306	95.88148671	-2380.097298	-79.10633289	87.36162525	-2234.277532	-41.71858376	43.17753067	-2247.098298	-155.3841374	25.72598554	-2168.039139	-165.0174344	-32.52812728	-2160.688655	-50.15543807	-20.53518786	-2100.406098	-83.79364801	-43.61276735	-2044.614528	178.8034865	698.429411	-1956.528959	95.03600439	655.209608	-2051.605324	161.7547942	577.7980027	-2076.275275	144.5366564	433.0926791	-2074.945357	15.87918741	433.9233621	-2081.582374	162.4477689	408.0585089	-2035.391398	100.5194763	349.6086133	-2103.479549	174.5177999	360.9926299	-2103.831635	136.4325857	9.825052268	-2097.864157	34.31683281	35.56634631	-2186.726238	76.11439987	-9.895387393	-2004.177799	48.15109198	-6.301428176	-2023.65273	152.6198727	-6.390593593	-1956.532629	163.716336	-30.70395865	-1938.480372	55.50675189	-30.64274073	-1886.370864	82.30973808	-29.52501439
	23	0.4	-1986.906339	-0.001002095	1370.283122	-2052.12264	-161.9453511	1446.358697	-2049.452421	165.1979949	1445.700493	-1917.431344	-10.08809499	1654.081485	-2008.759557	-117.7896216	1024.581218	-2002.62687	119.399185	1017.553668	-2185.126745	-5.611229398	1016.384358	-1998.914795	-173.4115572	692.855153	-1927.073797	-67.95180237	633.666462	-1993.346761	-162.9734513	558.6626668	-2024.72191	-142.5943975	459.1576666	-2024.280468	-8.355853302	440.5940478	-2083.368804	-154.6508593	444.0220715	-2032.953866	-93.81404015	366.4315381	-2118.589384	-165.0122006	353.8103132	-2284.872873	-136.9768135	81.6683339	-2268.923921	-37.22329306	90.84839167	-2361.110123	-79.10633289	79.34760642	-2213.895827	-41.71858376	40.05906636	-2226.126494	-155.3841374	22.1890011	-2145.165561	-165.0174344	-33.39174644	-2138.219785	-50.15543807	-21.15996749	-2077.199997	-83.79364801	-42.21101723	-2040.996329	178.8034865	698.3128804	-1953.150466	95.03600439	654.6079238	-2048.652326	161.7547942	577.7218624	-2074.119983	144.5366564	433.1547998	-2072.785504	15.87918741	433.9781354	-2079.623193	162.4477689	408.1468111	-2033.803238	100.5194763	349.4056138	-2101.817942	174.5177999	361.2205247	-2104.393554	136.4325857	10.06221597	-2098.263206	34.31683281	35.76520895	-2187.30859	76.11439987	-9.582712875	-2004.757998	48.15109198	-6.099826676	-2024.232979	152.6198727	-6.177142474	-1957.127685	163.716336	-30.53134253	-1939.075393	55.50675189	-30.48110859	-1886.965215	82.30973808	-29.39508871
